Coordinates
version=1
nRows=4
nColumns=63
inDegrees=yes

Units are S.I. units (second, meters, Newtons, ...)
If the header above contains a line with 'inDegrees', this indicates whether rotational values are in degrees (yes) or radians (no).

endheader
time	pelvis_tilt	pelvis_list	pelvis_rotation	pelvis_tx	pelvis_ty	pelvis_tz	hip_flexion_r	hip_adduction_r	hip_rotation_r	knee_angle_r	knee_angle_r_beta	ankle_angle_r	subtalar_angle_r	mtp_angle_r	hip_flexion_l	hip_adduction_l	hip_rotation_l	knee_angle_l	knee_angle_l_beta	ankle_angle_l	subtalar_angle_l	mtp_angle_l	L5_S1_Flex_Ext	L5_S1_Lat_Bending	L5_S1_axial_rotation	L4_L5_Flex_Ext	L4_L5_Lat_Bending	L4_L5_axial_rotation	L3_L4_Flex_Ext	L3_L4_Lat_Bending	L3_L4_axial_rotation	L2_L3_Flex_Ext	L2_L3_Lat_Bending	L2_L3_axial_rotation	L1_L2_Flex_Ext	L1_L2_Lat_Bending	L1_L2_axial_rotation	L1_T12_Flex_Ext	L1_T12_Lat_Bending	L1_T12_axial_rotation	Abs_r3	Abs_r2	Abs_r1	Abs_t1	Abs_t2	neck_flexion	neck_bending	neck_rotation	arm_flex_r	arm_add_r	arm_rot_r	elbow_flex_r	pro_sup_r	wrist_flex_r	wrist_dev_r	arm_flex_l	arm_add_l	arm_rot_l	elbow_flex_l	pro_sup_l	wrist_flex_l	wrist_dev_l
      3.03333333	     -2.09548251	    -18.57173752	     86.01256291	      0.20390655	      0.94675603	      0.51735682	     14.49698880	     -0.42412908	     -2.43845673	      8.79114551	      0.15343443	     36.70018963	     14.73024919	      0.00000000	      9.98020226	      1.66970311	     -1.65109318	      0.72785445	      0.01270346	     30.15868380	    -12.14737156	      0.00000000	     -0.96747595	      0.81166584	      2.58612455	     -1.79669959	      1.07951557	      2.74775733	     -1.58946624	      1.97348433	      2.74775733	     -1.10572826	      1.97348433	      2.26285898	     -0.89839817	      1.65514899	      2.10122620	     -0.55281576	      1.25727039	      1.93959341	     -6.91058397	      9.18172636	     14.38324890	      0.00000000	      0.00000000	     -0.93432759	     11.52428781	      8.35489216	    -21.51990331	    -13.43182853	    -21.61165029	     97.09701574	     89.00600659	     12.17494779	      7.03671150	     -5.02736509	     -9.01549544	     31.64535473	     39.58413573	     88.44698646	    -29.06549343	    -13.17733931
      3.05000000	     -2.15030685	    -19.13220130	     85.91764033	      0.20357053	      0.94585829	      0.51854852	     15.14059848	     -0.47204073	     -2.39224319	      8.87706956	      0.15493409	     36.52970165	     14.84940796	      0.00000000	     10.58962664	      1.70433095	     -1.89402770	      0.69732283	      0.01217058	     30.14075808	    -11.94245257	      0.00000000	     -0.98226556	      0.82493419	      2.47395137	     -1.82416537	      1.09716247	      2.62857333	     -1.61376408	      2.00574498	      2.62857333	     -1.12263131	      2.00574498	      2.16470744	     -0.91213180	      1.68220580	      2.01008548	     -0.56126654	      1.27782306	      1.85546352	     -7.01622465	      9.33182052	     13.75937531	      0.00000000	      0.00000000	     -0.41934731	     11.18496010	      9.43987977	    -21.04794717	    -13.83508773	    -20.84638279	     97.28991536	     88.96920313	     11.80868981	      8.08603562	     -5.30598441	     -8.97338621	     31.50211077	     39.66009368	     88.62403964	    -29.38042718	    -13.30947536
      3.06666667	     -2.45384944	    -19.89125880	     85.67004530	      0.20411167	      0.94481902	      0.51975639	     16.15235432	     -0.67545464	     -2.30616690	      9.21211571	      0.16078175	     36.54356914	     14.98807586	      0.00000000	     11.42562067	      1.89524712	     -2.23489595	      0.63946626	      0.01116079	     30.05934236	    -11.63138782	      0.00000000	     -0.96631867	      0.80295612	      2.38376289	     -1.79455041	      1.06793164	      2.53274807	     -1.58756495	      1.95230752	      2.53274807	     -1.10440561	      1.95230752	      2.08579253	     -0.89732352	      1.63738813	      1.93680734	     -0.55215449	      1.24377903	      1.78782216	     -6.90231765	      9.08320025	     13.25777404	      0.00000000	      0.00000000	     -0.06891464	     10.98397029	     10.73176789	    -20.55604849	    -13.80862810	    -20.16620890	     97.51121857	     88.92019920	     11.03822062	      9.95199515	     -5.57017709	     -9.00078393	     31.31591603	     39.55219282	     88.78540975	    -30.30942980	    -13.79494514
      3.08333333	     -3.01802497	    -20.71830579	     85.07937484	      0.20524416	      0.94368137	      0.52090949	     17.35363580	     -1.04306048	     -2.05061141	      9.64197629	      0.16828423	     36.70099601	     15.39275744	      0.00000000	     12.35602901	      2.25098085	     -2.70281449	      0.59592232	      0.01040081	     30.01220996	    -11.40391720	      0.00000000	     -0.93868434	      0.74569086	      2.40473510	     -1.74323069	      0.99176884	      2.55503104	     -1.54216451	      1.81307275	      2.55503104	     -1.07282234	      1.81307275	      2.10414321	     -0.87166228	      1.52061280	      1.95384727	     -0.53636423	      1.15507514	      1.80355132	     -6.70492839	      8.43540411	     13.37441520	      0.00000000	      0.00000000	      0.66222132	     10.92356332	     11.37703771	    -20.33969214	    -13.52662345	    -19.80323650	     97.62259802	     88.86651835	     10.50771966	     11.05967854	     -5.53807400	     -9.24833478	     31.92082428	     39.21958132	     88.87205929	    -31.61227697	    -14.71006732
